# xmcd CD database file
#
# Track frame offsets:
#	150
#	20025
#	39900
#	59775
#
# Disc length: 1057 seconds
#
# Revision: 5
# Processed by: cddbd v1.5PL3 Copyright (c) Steve Scherf et al.
# Submitted via: CDex 1.51
#
DISCID=32041f04
DTITLE=今井絵理子 - Butterfly
DYEAR=2003
DGENRE=JPop
TTITLE0=Butterfly
TTITLE1=Can U feel me ?
TTITLE2=Butterfly (Instrumental)
TTITLE3=Can U feel me ? (Instrumental)
EXTD=YEAR: 2003
EXTT0=
EXTT1=
EXTT2=
EXTT3=
PLAYORDER=
